<?xml version="1.0" encoding="UTF-8" standalone="no"?>
<!-- Created with Inkscape (http://www.inkscape.org/) -->
<svg
   xmlns:dc="http://purl.org/dc/elements/1.1/"
   xmlns:cc="http://creativecommons.org/ns#"
   xmlns:rdf="http://www.w3.org/1999/02/22-rdf-syntax-ns#"
   xmlns:svg="http://www.w3.org/2000/svg"
   xmlns="http://www.w3.org/2000/svg"
   xmlns:sodipodi="http://sodipodi.sourceforge.net/DTD/sodipodi-0.dtd"
   xmlns:inkscape="http://www.inkscape.org/namespaces/inkscape"
   id="svg2"
   sodipodi:version="0.32"
   inkscape:version="0.46"
   width="1024"
   height="768"
   version="1.0"
   sodipodi:docname="long.svg"
   inkscape:output_extension="org.inkscape.output.svg.inkscape">
  <metadata
     id="metadata7">
    <rdf:RDF>
      <cc:Work
         rdf:about="">
        <dc:format>image/svg+xml</dc:format>
        <dc:type
           rdf:resource="http://purl.org/dc/dcmitype/StillImage" />
      </cc:Work>
    </rdf:RDF>
  </metadata>
  <defs
     id="defs5">
    <inkscape:perspective
       sodipodi:type="inkscape:persp3d"
       inkscape:vp_x="0 : 526.18109 : 1"
       inkscape:vp_y="0 : 1000 : 0"
       inkscape:vp_z="744.09448 : 526.18109 : 1"
       inkscape:persp3d-origin="372.04724 : 350.78739 : 1"
       id="perspective9" />
  </defs>
  <sodipodi:namedview
     inkscape:window-height="722"
     inkscape:window-width="1024"
     inkscape:pageshadow="2"
     inkscape:pageopacity="0.0"
     guidetolerance="10.0"
     gridtolerance="10.0"
     objecttolerance="10.0"
     borderopacity="1.0"
     bordercolor="#666666"
     pagecolor="#ffffff"
     id="base"
     showgrid="true"
     inkscape:zoom="1.4142136"
     inkscape:cx="406.98284"
     inkscape:cy="451.78545"
     inkscape:window-x="0"
     inkscape:window-y="25"
     inkscape:current-layer="layer2"
     showguides="true"
     inkscape:guide-bbox="true">
    <inkscape:grid
       type="xygrid"
       id="grid2389"
       visible="true"
       enabled="true"
       color="#000080"
       opacity="0.11764706"
       empcolor="#000080"
       empopacity="0.35294118"
       spacingx="8px"
       spacingy="8px"
       empspacing="4"
       dotted="false" />
    <sodipodi:guide
       orientation="0,1"
       position="106,240"
       id="guide2744" />
    <sodipodi:guide
       orientation="1,0"
       position="320,141"
       id="guide2746" />
  </sodipodi:namedview>
  <g
     inkscape:groupmode="layer"
     id="layer2"
     inkscape:label="lua.obstacle">
    <path
       style="fill:#000000;fill-opacity:0.25098039;stroke:#000000;stroke-opacity:0.50196078"
       d="M 0,0 L 1024,0 L 1024,32 L 0,32 L 0,0 z"
       id="path2402"
       sodipodi:nodetypes="ccccc" />
    <path
       style="fill:#000000;fill-opacity:0.25098039;stroke:#000000;stroke-opacity:0.50196078"
       d="M 992,0 L 1024,0 L 1024,768 L 992,768 L 992,0 z"
       id="path2404"
       sodipodi:nodetypes="ccccc" />
    <path
       style="fill:#000000;fill-opacity:0.25098039;stroke:#000000;stroke-opacity:0.50196078"
       d="M 1024,736 L 1024,768 L 0,768 L 0,736 L 1024,736 z"
       id="path2406"
       sodipodi:nodetypes="ccccc" />
    <path
       style="fill:#000000;fill-opacity:0.25098039;stroke:#000000;stroke-opacity:0.50196078"
       d="M 0,0 L 32,0 L 32,768 L 0,768 L 0,0 z"
       id="path2408"
       sodipodi:nodetypes="ccccc" />
    <path
       style="fill:#000000;fill-opacity:0.25098039;stroke:#000000;stroke-opacity:0.50196078"
       d="M 720,200 L 608,32 L 608,16 L 912,88 L 912,104 L 720,200 z"
       id="path2509"
       sodipodi:nodetypes="cccccc" />
    <path
       style="fill:#000000;fill-opacity:0.25098039;stroke:#000000;stroke-opacity:0.50196078"
       d="M 304,568 L 112,664 L 112,680 L 416,752 L 416,736 L 304,568 z"
       id="path2511"
       sodipodi:nodetypes="cccccc" />
    <path
       style="fill:#000000;fill-opacity:0.25098039;stroke:#000000;stroke-width:1.20000005;stroke-opacity:0.50196078"
       d="M 120,672 L 24,576 L 24,672 L 120,672 z"
       id="path2748"
       sodipodi:nodetypes="cccc" />
    <path
       style="fill:#000000;fill-opacity:0.25098039;stroke:#000000;stroke-width:1.20000005;stroke-opacity:0.50196078"
       d="M 904,96 L 1000,192 L 1000,96 L 904,96 z"
       id="path2750" />
    <path
       style="fill:#000000;fill-opacity:0.25098039;stroke:#000000;stroke-width:1.25;stroke-opacity:0.50196078"
       d="M 104,24 L 24,104 L 24,24 L 104,24 z"
       id="path2752" />
    <path
       style="fill:#000000;fill-opacity:0.25098039;stroke:#000000;stroke-width:1.25;stroke-opacity:0.50196078"
       d="M 1000,664 L 920,744 L 1000,744 L 1000,664 z"
       id="path2754" />
    <path
       style="fill:#000000;fill-opacity:0.25098039;stroke:#000000;stroke-opacity:0.50196078"
       d="M 608,32 L 912,104 L 992,104 L 992,32 L 608,32 z"
       id="path2756"
       sodipodi:nodetypes="ccccc" />
    <path
       style="fill:#000000;fill-opacity:0.25098039;stroke:#000000;stroke-opacity:0.50196078"
       d="M 32,664 L 112,664 L 416,736 L 32,736 L 32,664 z"
       id="path2758" />
    <path
       style="fill:#000000;fill-opacity:0.25098039;stroke:#000000;stroke-opacity:0.50196078"
       d="M 480,608 L 816,632 L 880,600 L 584,344 L 480,448 L 448,544 L 480,608 z"
       id="path2559"
       sodipodi:nodetypes="ccccccc" />
    <path
       style="fill:#000000;fill-opacity:0.25098039;stroke:#000000;stroke-opacity:0.50196078"
       d="M 880,600 L 608,256 L 568,376 L 840,600 L 880,600 z"
       id="path2581"
       sodipodi:nodetypes="ccccc" />
    <path
       style="fill:#000000;fill-opacity:0.25098039;stroke:#000000;stroke-opacity:0.50196078"
       d="M 544,160 L 208,136 L 144,168 L 440,424 L 544,320 L 576,224 L 544,160 z"
       id="path2583"
       sodipodi:nodetypes="ccccccc" />
    <path
       style="fill:#000000;fill-opacity:0.25098039;stroke:#000000;stroke-opacity:0.50196078"
       d="M 144,168 L 416,512 L 456,392 L 184,168 L 144,168 z"
       id="path2585"
       sodipodi:nodetypes="ccccc" />
  </g>
  <g
     inkscape:groupmode="layer"
     id="layer1"
     inkscape:label="checkpoints">
    <path
       style="fill:#0000ff;fill-opacity:0.25098039;stroke:#000000;stroke-opacity:0.50196078"
       d="M 880,600 L 992,672 L 928,736 L 816,632 L 880,600 z"
       id="path2397"
       inkscape:label="lua.checkpoint-1"
       sodipodi:nodetypes="ccccc" />
    <path
       style="fill:#0000ff;fill-opacity:0.25098039;stroke:#000000;stroke-opacity:0.50196078"
       d="M 32,96 L 96,32 L 208,136 L 144,168 L 32,96 z"
       id="path3169"
       inkscape:label="lua.checkpoint-2"
       sodipodi:nodetypes="ccccc" />
  </g>
</svg>
